<?xml version="1.0" encoding="UTF-8" standalone="no"?>
<!-- Created with Inkscape (http://www.inkscape.org/) -->

<svg
   version="1.1"
   id="svg2"
   width="1145.196"
   height="816.38397"
   viewBox="0 0 1145.196 816.38397"
   sodipodi:docname="logo_couleurs.ai"
   xmlns:inkscape="http://www.inkscape.org/namespaces/inkscape"
   xmlns:sodipodi="http://sodipodi.sourceforge.net/DTD/sodipodi-0.dtd"
   xmlns="http://www.w3.org/2000/svg"
   xmlns:svg="http://www.w3.org/2000/svg">
  <defs
     id="defs6">
    <clipPath
       clipPathUnits="userSpaceOnUse"
       id="clipPath18">
      <path
         d="M 0,612.288 H 858.897 V 0 H 0 Z"
         id="path16" />
    </clipPath>
    <clipPath
       clipPathUnits="userSpaceOnUse"
       id="clipPath26">
      <path
         d="m 105.725,286.92 h 13.938 v -13.933 h -13.938 z"
         id="path24" />
    </clipPath>
    <clipPath
       clipPathUnits="userSpaceOnUse"
       id="clipPath110">
      <path
         d="M 0,612.288 H 858.897 V 0 H 0 Z"
         id="path108" />
    </clipPath>
  </defs>
  <sodipodi:namedview
     id="namedview4"
     pagecolor="#ffffff"
     bordercolor="#000000"
     borderopacity="0.25"
     inkscape:showpageshadow="2"
     inkscape:pageopacity="0.0"
     inkscape:pagecheckerboard="0"
     inkscape:deskcolor="#d1d1d1" />
  <g
     id="g8"
     inkscape:groupmode="layer"
     inkscape:label="logo_couleurs"
     transform="matrix(1.3333333,0,0,-1.3333333,0,816.384)">
    <path
       d="m 105.726,256.637 h 13.938 v 13.936 h -13.938 z"
       style="fill:#2c4c9c;fill-opacity:1;fill-rule:nonzero;stroke:none"
       id="path10" />
    <g
       id="g12">
      <g
         id="g14"
         clip-path="url(#clipPath18)">
        <g
           id="g20">
          <g
             id="g22" />
          <g
             id="g32">
            <g
               clip-path="url(#clipPath26)"
               opacity="0.990005"
               id="g30">
              <path
                 d="m 105.726,272.987 h 13.938 v 13.933 h -13.938 z"
                 style="fill:#2c4c9c;fill-opacity:1;fill-rule:nonzero;stroke:none"
                 id="path28" />
            </g>
          </g>
        </g>
      </g>
    </g>
    <path
       d="m 72.972,289.334 h 13.936 v 13.934 H 72.972 Z"
       style="fill:#2c4c9c;fill-opacity:1;fill-rule:nonzero;stroke:none"
       id="path34" />
    <path
       d="m 105.727,289.334 h 13.936 v 13.934 h -13.936 z"
       style="fill:#2c4c9c;fill-opacity:1;fill-rule:nonzero;stroke:none"
       id="path36" />
    <path
       d="m 89.349,289.334 h 13.934 v 13.934 H 89.349 Z"
       style="fill:#2c4c9c;fill-opacity:1;fill-rule:nonzero;stroke:none"
       id="path38" />
    <g
       id="g40"
       transform="translate(72.9717,305.6792)">
      <path
         d="M 0,0 H 13.936 V 13.938 L 0,13.939 Z"
         style="fill:#2c4c9c;fill-opacity:1;fill-rule:nonzero;stroke:none"
         id="path42" />
    </g>
    <g
       id="g44"
       transform="translate(56.5923,305.6792)">
      <path
         d="M 0,0 13.936,0.001 V 13.938 L 0,13.938 Z"
         style="fill:#2c4c9c;fill-opacity:1;fill-rule:nonzero;stroke:none"
         id="path46" />
    </g>
    <g
       id="g48"
       transform="translate(39.9063,305.6792)">
      <path
         d="M 0,0 H 13.933 V 13.938 H -10e-4 Z"
         style="fill:#2c4c9c;fill-opacity:1;fill-rule:nonzero;stroke:none"
         id="path50" />
    </g>
    <path
       d="m 56.592,322.03 h 13.935 v 13.936 H 56.592 Z"
       style="fill:#2c4c9c;fill-opacity:1;fill-rule:nonzero;stroke:none"
       id="path52" />
    <g
       id="g54"
       transform="translate(56.5923,289.332)">
      <path
         d="M 0,0 H 13.936 L 13.935,13.936 H 0 Z"
         style="fill:#2c4c9c;fill-opacity:1;fill-rule:nonzero;stroke:none"
         id="path56" />
    </g>
    <g
       id="g58"
       transform="translate(105.7256,305.6792)">
      <path
         d="M 0,0 H 13.938 V 13.939 H 0.001 Z"
         style="fill:#2c4c9c;fill-opacity:1;fill-rule:nonzero;stroke:none"
         id="path60" />
    </g>
    <g
       id="g62"
       transform="translate(89.3501,305.6792)">
      <path
         d="M 0,0 13.934,0.001 V 13.938 H -0.001 Z"
         style="fill:#2c4c9c;fill-opacity:1;fill-rule:nonzero;stroke:none"
         id="path64" />
    </g>
    <path
       d="m 72.972,322.03 h 13.936 v 13.934 H 72.972 Z"
       style="fill:#2c4c9c;fill-opacity:1;fill-rule:nonzero;stroke:none"
       id="path66" />
    <path
       d="m 138.483,322.03 h 13.935 v 13.934 h -13.935 z"
       style="fill:#2c4c9c;fill-opacity:1;fill-rule:nonzero;stroke:none"
       id="path68" />
    <path
       d="m 122.105,322.03 h 13.931 v 13.934 h -13.931 z"
       style="fill:#2c4c9c;fill-opacity:1;fill-rule:nonzero;stroke:none"
       id="path70" />
    <g
       id="g72"
       transform="translate(122.106,305.6826)">
      <path
         d="M 0,0 H 13.93 L 13.929,13.933 H -10e-4 Z"
         style="fill:#2c4c9c;fill-opacity:1;fill-rule:nonzero;stroke:none"
         id="path74" />
    </g>
    <path
       d="m 138.484,305.683 h 13.932 v 13.933 h -13.932 z"
       style="fill:#2c4c9c;fill-opacity:1;fill-rule:nonzero;stroke:none"
       id="path76" />
    <g
       id="g78"
       transform="translate(154.7866,305.6826)">
      <path
         d="M 0,0 H 13.933 L 13.932,13.933 H 0.001 Z"
         style="fill:#2c4c9c;fill-opacity:1;fill-rule:nonzero;stroke:none"
         id="path80" />
    </g>
    <path
       d="m 122.121,289.317 h 13.931 v 13.934 h -13.931 z"
       style="fill:#2c4c9c;fill-opacity:1;fill-rule:nonzero;stroke:none"
       id="path82" />
    <path
       d="m 122.121,272.987 h 13.931 v 13.933 h -13.931 z"
       style="fill:#2c4c9c;fill-opacity:1;fill-rule:nonzero;stroke:none"
       id="path84" />
    <g
       id="g86"
       transform="translate(138.4849,289.3174)">
      <path
         d="M 0,0 H 13.931 V 13.934 L 0,13.935 Z"
         style="fill:#2c4c9c;fill-opacity:1;fill-rule:nonzero;stroke:none"
         id="path88" />
    </g>
    <path
       d="m 105.727,322.03 h 13.936 v 13.934 h -13.936 z"
       style="fill:#2c4c9c;fill-opacity:1;fill-rule:nonzero;stroke:none"
       id="path90" />
    <path
       d="m 89.349,322.03 h 13.934 v 13.934 H 89.349 Z"
       style="fill:#2c4c9c;fill-opacity:1;fill-rule:nonzero;stroke:none"
       id="path92" />
    <g
       id="g94"
       transform="translate(122.106,338.3779)">
      <path
         d="M 0,0 H 13.93 L 13.929,13.932 H -10e-4 Z"
         style="fill:#2c4c9c;fill-opacity:1;fill-rule:nonzero;stroke:none"
         id="path96" />
    </g>
    <path
       d="m 105.726,338.378 h 13.938 v 13.932 h -13.938 z"
       style="fill:#2c4c9c;fill-opacity:1;fill-rule:nonzero;stroke:none"
       id="path98" />
    <g
       id="g100"
       transform="translate(105.7271,354.7271)">
      <path
         d="M 0,0 H 13.936 V 13.931 L -0.001,13.932 Z"
         style="fill:#2c4c9c;fill-opacity:1;fill-rule:nonzero;stroke:none"
         id="path102" />
    </g>
    <g
       id="g104">
      <g
         id="g106"
         clip-path="url(#clipPath110)">
        <g
           id="g112"
           transform="translate(302.2178,287.1543)">
          <path
             d="m 0,0 c -9.62,9.62 -22.154,14.382 -34.883,14.283 -12.438,-0.193 -25.07,-4.858 -34.688,-14.477 -9.621,-9.619 -14.284,-22.25 -14.478,-34.69 0,-4.443 0.579,-8.885 1.747,-13.196 -2.699,13.72 1.3,28.452 11.879,39.031 8.183,8.184 19.065,12.692 30.638,12.692 10e-4,0 0,0 0,0 11.574,0 22.455,-4.507 30.639,-12.692 8.185,-8.183 12.691,-19.064 12.691,-30.639 0,-11.571 -4.506,-22.455 -12.691,-30.639 -8.183,-8.183 -19.064,-12.69 -30.637,-12.69 -2.998,0 -5.947,0.308 -8.819,0.9 4.458,-1.251 9.051,-1.869 13.622,-1.835 12.438,0.195 25.069,4.858 34.688,14.477 9.619,9.62 14.284,22.252 14.478,34.69 C 14.381,-22.153 9.522,-9.521 0,0"
             style="fill:#2c4c9c;fill-opacity:1;fill-rule:nonzero;stroke:none"
             id="path114" />
        </g>
        <g
           id="g116"
           transform="translate(581.4844,206.2305)">
          <path
             d="M 0,0 H 50.993 V -2.054 H -1.918 -2.192 v 95.816 h 52.91 V 91.706 H 0 V 47.018 H 49.62 V 44.823 H 0 Z"
             style="fill:#22305c;fill-opacity:1;fill-rule:nonzero;stroke:none"
             id="path118" />
        </g>
        <g
           id="g120"
           transform="translate(675.665,242.6914)">
          <path
             d="M 0,0 C 35.639,0 35.639,55.245 0,55.245 H -30.981 V 0 Z M -33.175,57.438 H -32.073 0 c 38.38,0 38.38,-59.493 0,-59.493 h -30.981 v -36.46 h -2.194 v 94.856 z"
             style="fill:#22305c;fill-opacity:1;fill-rule:nonzero;stroke:none"
             id="path122" />
        </g>
        <g
           id="g124"
           transform="translate(715.9756,204.1768)">
          <path
             d="M 0,0 H -2.057 V 95.815 H 49.619 V 93.76 H 0 V 49.071 H 43.861 V 46.877 L 0,46.877 Z"
             style="fill:#22305c;fill-opacity:1;fill-rule:nonzero;stroke:none"
             id="path126" />
        </g>
        <g
           id="g128"
           transform="translate(776.5713,206.3662)">
          <path
             d="M 0,0 H 51.537 V -2.189 H -2.188 V 93.626 H 0 Z"
             style="fill:#22305c;fill-opacity:1;fill-rule:nonzero;stroke:none"
             id="path130" />
        </g>
        <g
           id="g132"
           transform="translate(344.0127,252.835)">
          <path
             d="m 0,0 h 16.175 c 11.651,0 17.409,8.364 17.409,16.727 0,8.223 -5.758,16.586 -17.409,16.586 H -5.071 v -81.971 h -13.708 v 95.953 h 34.954 c 20.838,0 31.254,-15.355 31.254,-30.568 0,-13.575 -8.361,-26.458 -24.811,-29.337 L 52.913,-48.658 H 34.955 L 0,-6.576 Z"
             style="fill:#22305c;fill-opacity:1;fill-rule:nonzero;stroke:none"
             id="path134" />
        </g>
        <g
           id="g136"
           transform="translate(397.6211,232.96)">
          <path
             d="M 0,0 V 67.032 H 13.998 V -0.137 c 0,-10.554 11.378,-15.766 21.521,-15.766 10.007,0 21.381,5.346 21.381,15.903 V 67.032 H 70.886 V -0.137 c 0,-19.466 -18.918,-29.607 -35.367,-29.607 C 18.658,-29.744 0,-19.603 0,0"
             style="fill:#22305c;fill-opacity:1;fill-rule:nonzero;stroke:none"
             id="path138" />
        </g>
        <g
           id="g140"
           transform="translate(492.3721,204.1768)">
          <path
             d="M 0,0 H -13.85 V 95.953 H -2.609 L 29.06,49.348 60.726,95.953 H 71.69 V 0 H 57.983 V 67.577 L 32.896,30.291 H 25.083 L 0,67.577 Z"
             style="fill:#22305c;fill-opacity:1;fill-rule:nonzero;stroke:none"
             id="path142" />
        </g>
        <g
           id="g144"
           transform="translate(172.9194,204.1768)">
          <path
             d="M 0,0 H -13.846 V 95.815 H 43.316 V 81.971 H 0 V 54.968 H 38.378 V 40.982 H 0 Z"
             style="fill:#22305c;fill-opacity:1;fill-rule:nonzero;stroke:none"
             id="path146" />
        </g>
        <g
           id="g148"
           transform="translate(233.0132,276.8877)">
          <path
             d="m 0,0 c -15.66,-15.661 -16.326,-40.805 -1.515,-57.244 0.498,-0.546 1.01,-1.089 1.54,-1.621 7.854,-7.842 18.295,-12.161 29.396,-12.161 11.113,0 21.561,4.328 29.42,12.184 7.858,7.86 12.186,18.308 12.186,29.421 0,3.297 -0.381,6.536 -1.122,9.666 0.187,-1.544 0.275,-3.107 0.258,-4.676 0,-9.618 -3.747,-18.669 -10.552,-25.475 -6.805,-6.804 -15.855,-10.551 -25.484,-10.551 l -0.375,-0.004 c -9.373,0 -18.488,3.742 -25.011,10.265 -6.644,6.643 -10.456,15.967 -10.456,25.58 0.107,9.614 3.887,18.626 10.65,25.387 6.761,6.761 15.774,10.543 25.377,10.649 h 0.013 c 1.459,0 2.912,-0.088 4.348,-0.26 -3.001,0.678 -6.1,1.027 -9.254,1.027 C 18.306,12.187 7.858,7.858 0,0"
             style="fill:#22305c;fill-opacity:1;fill-rule:nonzero;stroke:none"
             id="path150" />
        </g>
      </g>
    </g>
  </g>
</svg>
