<svg fill="none" height="32" viewBox="0 0 229 32" width="229" xmlns="http://www.w3.org/2000/svg"><g fill="#0098ff"><path d="m40 9.2471h4.0287v2.7378h-4.0287zm0 3.9931h4.0287v10.4967h-4.0287z"/><path d="m46.6023 13.2402h3.7515v1.7099c.5609-.6985 1.1285-1.196 1.7026-1.4925.5741-.3031 1.2736-.4546 2.0985-.4546 1.1152 0 1.9863.3327 2.6132.9982.6335.659.9502 1.6803.9502 3.064v6.6717h-4.0485v-5.7722c0-.659-.1221-1.1235-.3662-1.3937-.2442-.2767-.5873-.4151-1.0295-.4151-.4883 0-.8842.1845-1.1878.5535-.3035.369-.4553 1.0312-.4553 1.9867v5.0408h-4.0287z"/><path d="m64.6077 13.2402h1.9203v2.9454h-1.9203v7.5513h-4.0386v-7.5513h-1.5046v-2.9454h1.5046v-.4744c0-.4283.0462-.8995.1386-1.4134.0923-.514.2639-.9324.5147-1.2553.2573-.32945.6137-.59302 1.069-.7907.462-.20427 1.135-.3064 2.0193-.3064.7061 0 1.7323.08237 3.0784.2471l-.4454 2.4314c-.4817-.079-.8711-.1186-1.168-.1186-.363 0-.6236.0626-.782.1878-.1584.1186-.2705.3097-.3365.5733-.033.1449-.0495.4513-.0495.9192z"/><path d="m67.5277 18.5182c0-1.6012.5411-2.9191 1.6234-3.9536 1.0822-1.0411 2.5439-1.5616 4.385-1.5616 2.1051 0 3.6955.6095 4.7711 1.8285.8645.9818 1.2967 2.1909 1.2967 3.6274 0 1.6143-.5378 2.9388-1.6135 3.9733-1.069 1.0279-2.5505 1.5419-4.4444 1.5419-1.6893 0-3.0553-.4283-4.098-1.2849-1.2802-1.0609-1.9203-2.4512-1.9203-4.171zm4.0386-.0099c0 .9357.1881 1.6275.5642 2.0756.3828.4481.8612.6721 1.4353.6721.5807 0 1.0559-.2207 1.4254-.6622.3761-.4415.5642-1.1498.5642-2.1251 0-.9093-.1881-1.5847-.5642-2.0261-.3761-.4481-.8414-.6721-1.3957-.6721-.5873 0-1.0723.2273-1.4551.6819-.3827.4481-.5741 1.1334-.5741 2.0559z"/><path d="m81.5737 13.2402h3.7614v1.532c.5411-.6392 1.0856-1.0938 1.6333-1.364.5543-.2702 1.2208-.4052 1.9995-.4052.838 0 1.5013.1482 1.9896.4447.4883.2966.8875.738 1.1977 1.3245.6335-.6853 1.2109-1.1498 1.7322-1.3936.5214-.2504 1.1648-.3756 1.9302-.3756 1.1285 0 2.0094.336 2.6429 1.0081.6335.6655.9503 1.7099.9503 3.1332v6.5926h-4.0386v-5.9798c0-.4744-.0924-.8269-.2771-1.0576-.2706-.3624-.6072-.5436-1.0097-.5436-.4751 0-.8579.1713-1.1482.514-.2904.3426-.4356.8928-.4356 1.6506v5.4164h-4.0385v-5.7821c0-.4613-.0264-.7742-.0792-.939-.0858-.2636-.2343-.4744-.4455-.6325-.2111-.1648-.4586-.2471-.7424-.2471-.4619 0-.8413.1746-1.1383.5238-.2969.3492-.4454.9225-.4454 1.7198v5.3571h-4.0386z"/><path d="m105.488 16.6402-3.85-.4052c.145-.6721.353-1.1992.624-1.5814.277-.3888.673-.7248 1.187-1.0082.37-.2042.878-.3624 1.525-.4744.646-.112 1.346-.168 2.098-.168 1.208 0 2.178.0692 2.91.2075.733.1318 1.343.4119 1.832.8402.343.2965.613.7182.811 1.2651.198.5403.297 1.0576.297 1.5518v4.6355c0 .4942.03.883.089 1.1663.066.2767.205.6326.416 1.0675h-3.781c-.152-.2702-.251-.4745-.297-.6128-.046-.145-.092-.369-.139-.6722-.528.5074-1.052.8698-1.574 1.0873-.712.2899-1.54.4349-2.484.4349-1.254 0-2.207-.29-2.861-.8698-.646-.5799-.97-1.2948-.97-2.1448 0-.7973.234-1.4529.703-1.9669s1.333-.8961 2.593-1.1465c1.512-.3031 2.492-.514 2.94-.6326.449-.1252.924-.2866 1.426-.4843 0-.4942-.103-.8401-.307-1.0378-.205-.1977-.564-.2965-1.079-.2965-.66 0-1.155.1054-1.485.3162-.257.1648-.465.4745-.624.9291zm3.495 2.1152c-.555.1977-1.132.3723-1.733.5238-.818.2175-1.336.4316-1.554.6425-.224.2174-.336.4645-.336.7413 0 .3163.109.5765.326.7808.225.1977.551.2965.98.2965.449 0 .865-.1087 1.248-.3262.389-.2174.663-.481.821-.7907.165-.3163.248-.7248.248-1.2256z"/><path d="m115.337 13.2402h3.752v1.7099c.561-.6985 1.128-1.196 1.703-1.4925.574-.3031 1.273-.4546 2.098-.4546 1.115 0 1.986.3327 2.613.9982.634.659.95 1.6803.95 3.064v6.6717h-4.048v-5.7722c0-.659-.122-1.1235-.366-1.3937-.244-.2767-.588-.4151-1.03-.4151-.488 0-.884.1845-1.187.5535-.304.369-.456 1.0312-.456 1.9867v5.0408h-4.029z"/><path d="m129.007 9.2471h4.029v2.7378h-4.029zm0 3.9931h4.029v10.4967h-4.029z"/><path d="m139.282 16.6402-3.851-.4052c.146-.6721.353-1.1992.624-1.5814.277-.3888.673-.7248 1.188-1.0082.369-.2042.878-.3624 1.524-.4744.647-.112 1.346-.168 2.099-.168 1.207 0 2.177.0692 2.91.2075.732.1318 1.343.4119 1.831.8402.343.2965.614.7182.812 1.2651.198.5403.297 1.0576.297 1.5518v4.6355c0 .4942.029.883.089 1.1663.066.2767.204.6326.416 1.0675h-3.782c-.151-.2702-.25-.4745-.297-.6128-.046-.145-.092-.369-.138-.6722-.528.5074-1.053.8698-1.574 1.0873-.713.2899-1.541.4349-2.485.4349-1.253 0-2.207-.29-2.86-.8698-.647-.5799-.97-1.2948-.97-2.1448 0-.7973.234-1.4529.702-1.9669.469-.514 1.333-.8961 2.594-1.1465 1.511-.3031 2.491-.514 2.94-.6326.448-.1252.924-.2866 1.425-.4843 0-.4942-.102-.8401-.307-1.0378-.204-.1977-.564-.2965-1.079-.2965-.66 0-1.154.1054-1.484.3162-.258.1648-.466.4745-.624.9291zm3.494 2.1152c-.554.1977-1.132.3723-1.732.5238-.818.2175-1.336.4316-1.554.6425-.225.2174-.337.4645-.337.7413 0 .3163.109.5765.327.7808.224.1977.551.2965.98.2965.449 0 .864-.1087 1.247-.3262.389-.2174.663-.481.822-.7907.165-.3163.247-.7248.247-1.2256z"/><path d="m149.131 9.2471h4.118v7.4722l3.009-3.4791h4.959l-3.771 3.6768 3.989 6.8199h-4.544l-2.128-4.2106-1.514 1.4826v2.728h-4.118z"/></g><path d="m168.768 9.06128v14.67562h9.973v-1.7814h-7.906v-4.8783h7.44v-1.7813h-7.44v-4.4533h7.906v-1.78132z" fill="#333"/><path d="m184.464 21.1863-2.96-8.3397h-2.047l4.115 10.8903h1.642l4.115-10.8903h-1.905z" fill="#333"/><path d="m191.834 18.899h8.392c.244-3.4412-1.763-6.2346-5.088-6.2346-2.98 0-5.291 2.2064-5.291 5.6475 0 3.2186 1.906 5.6881 5.352 5.6881 2.655 0 4.379-1.5384 4.885-3.4209h-1.905c-.466 1.0728-1.358 1.8015-2.98 1.8015s-3.284-1.1335-3.365-3.4816zm.02-1.5789c.162-2.1862 1.642-3.0768 3.284-3.0768 1.946 0 3.102 1.5384 3.142 3.0768z" fill="#333"/><path d="m204.221 14.4862v-1.6396h-1.845v10.8903h1.845v-5.9108c0-2.3278 1.095-3.5626 2.879-3.5626 2.108 0 2.392 1.4575 2.392 3.1376v6.3358h1.845v-6.8824c0-2.4898-.953-4.1901-3.589-4.1901-1.844 0-2.899.7894-3.527 1.8218z" fill="#333"/><path d="m214.623 10.1139v2.7327h-1.723v1.4776h1.723v6.68c0 2.2671.487 2.7327 2.575 2.7327h1.338v-1.5385h-.933c-1.054 0-1.135-.2833-1.135-1.4169v-6.4573h2.068v-1.4776h-2.068v-2.7327z" fill="#333"/><path d="m226.932 16.0246h1.926c-.344-2.0647-1.946-3.3805-4.298-3.3805-2.412 0-4.358 1.1134-4.358 3.0364 0 2.0242 1.622 2.7124 3.102 3.0161l1.621.3238c1.176.2429 2.21.7085 2.21 1.8016 0 1.0121-1.135 1.6194-2.534 1.6194-1.622 0-2.493-.83-2.777-2.2267h-1.946c.202 1.9028 1.824 3.7853 4.682 3.7853 2.494 0 4.44-1.2348 4.44-3.3804 0-2.1052-1.743-2.8542-3.73-3.2388l-1.541-.3036c-1.054-.2024-1.662-.6073-1.662-1.4777 0-.9919 1.216-1.3765 2.291-1.3765 1.277 0 2.29.5061 2.574 1.8016z" fill="#333"/><path clip-rule="evenodd" d="m-.00000254 18.84c-.00012976-.6337.44577554-1.1799 1.06666254-1.3067.93213-.1893 1.60201-1.0088 1.60201-1.96 0-.9511-.66988-1.7707-1.60201-1.96-.620887-.1267-1.06679276-.673-1.06666311-1.3066l-.00000047-5.40004c-.0000001-1.10457.89542958-2 2.00000358-2h28c.5304 0 1.0391.21071 1.4142.58578s.5858.88378.5858 1.41422v5.40004c.0001.6336-.4458 1.1799-1.0667 1.3066-.9321.1893-1.602 1.0089-1.602 1.96 0 .9512.6699 1.7707 1.602 1.96.6209.1268 1.0668.673 1.0667 1.3067v5.4c0 1.1046-.8954 2-2 2h-28c-1.104572 0-2.00000197-.8954-2.00000207-2zm24.70630254-10.60001c0-.55229-.4477-1-1-1s-1 .44771-1 1c0 .55228.4477 1 1 1s1-.44772 1-1zm-1 3.88931c.5523 0 1 .4477 1 1s-.4477 1-1 1-1-.4477-1-1 .4477-1 1-1zm1 5.888c0-.5523-.4477-1-1-1s-1 .4477-1 1 .4477 1 1 1 1-.4477 1-1zm-1 3.8893c.5523 0 1 .4477 1 1s-.4477 1-1 1-1-.4477-1-1 .4477-1 1-1zm-12.7925-11.4238h-2.9138v10.2683h2.9138v-1.9332l1.0717-1.0506 1.5059 2.9838h3.215l-2.8228-4.833 2.6687-2.6056h-3.5092l-2.1293 2.4655z" fill="#0098ff" fill-rule="evenodd"/></svg>